# xmcd
#
# Track frame offsets:
#	150
#	12365
#	25238
#	39064
#	52765
#	65452
#	79867
#	96476
#	112012
#	125105
#	139800
#	160023
#	177076
#	192287
#
# Disc length: 2782 seconds
#
# Revision: 0
# Processed by: cddbd v1.5.2PL0 Copyright (c) Steve Scherf et al.
# Submitted via: audiograbber 1.83.01
#
DISCID=b50adc0e
DTITLE=01 - Mr Music Country 2012-19
DYEAR=2012
DGENRE=Country
TTITLE0=Chris Young - You
TTITLE1=Chalee Tennison - I let him get away with it
TTITLE2=Jake Owen - Don't think I can't love you
TTITLE3=Trace Adkins - Marry for money
TTITLE4=Holly Dunn - You really had me going
TTITLE5=Earl Thomas Conley - Fire and smoke
TTITLE6=Lorrie Morgan - Back in your arms again
TTITLE7=Neal McCoy - For a change
TTITLE8=Bobbie Cryner - You could steal me
TTITLE9=Jerrod Niemann - Lover, lover
TTITLE10=Little Texas - Amy's back in Austin
TTITLE11=Ronnie Dunn - Bleed red
TTITLE12=Lisa Brokop - Take that
TTITLE13=John Michel Montgomery - Beer and bones
EXTD=
EXTT0=
EXTT1=
EXTT2=
EXTT3=
EXTT4=
EXTT5=
EXTT6=
EXTT7=
EXTT8=
EXTT9=
EXTT10=
EXTT11=
EXTT12=
EXTT13=
PLAYORDER=
